<!DOCTYPE svg PUBLIC "-//W3C//DTD SVG 1.1//EN" "http://www.w3.org/Graphics/SVG/1.1/DTD/svg11.dtd">
<!-- Uploaded to: SVG Repo, www.svgrepo.com, Transformed by: SVG Repo Mixer Tools -->
<svg fill="#48643C" width="156px" height="156px" viewBox="0 0 32.00 32.00" xmlns="http://www.w3.org/2000/svg" stroke="#48643C" stroke-width="0.00032">
<g id="SVGRepo_bgCarrier" stroke-width="0"/>
<g id="SVGRepo_tracerCarrier" stroke-linecap="round" stroke-linejoin="round" stroke="#CCCCCC" stroke-width="0.32"/>
<g id="SVGRepo_iconCarrier"> <title/> <g data-name="Layer 6" id="Layer_6"> <path d="M29,2H3A1,1,0,0,0,2,3V22a1,1,0,0,0,1,1H29a1,1,0,0,0,1-1V3A1,1,0,0,0,29,2ZM28,21H4V4H28Z"/> <path d="M18.13,24.19a1.06,1.06,0,0,0-.59-.19H14.46a1.06,1.06,0,0,0-.59.19l-5.48,4A1,1,0,0,0,9,30H23a1,1,0,0,0,.59-1.81ZM12.05,28l2.74-2h2.42L20,28Z"/> <path d="M7,19H25a1,1,0,0,0,1-1V11a1,1,0,0,0-1-1H22a1,1,0,0,0-1,1v6H20V9a1,1,0,0,0-1-1H16a1,1,0,0,0-1,1v8H14V7a1,1,0,0,0-1-1H10A1,1,0,0,0,9,7V17H8V10a1,1,0,0,0-2,0v8A1,1,0,0,0,7,19Zm16-7h1v5H23Zm-6-2h1v7H17ZM11,8h1v9H11Z"/> </g> </g>
</svg>